<svg xmlns="http://www.w3.org/2000/svg" width="1600" height="900" viewBox="0 0 1600 900" fill="none">
  <defs>
    <linearGradient id="bg" x1="0" y1="0" x2="0" y2="1">
      <stop offset="0" stop-color="#f3f0ea"/>
      <stop offset="1" stop-color="#d8d2c8"/>
    </linearGradient>
    <linearGradient id="light" x1="0" y1="0" x2="1" y2="1">
      <stop offset="0" stop-color="#ffffff" stop-opacity=".6"/>
      <stop offset=".5" stop-color="#ffffff" stop-opacity="0"/>
      <stop offset="1" stop-color="#4c3f31" stop-opacity=".08"/>
    </linearGradient>
    <pattern id="grain" width="120" height="120" patternUnits="userSpaceOnUse">
      <path d="M0 24H120M0 72H120M24 0V120M72 0V120" stroke="#b7aea2" stroke-opacity=".22" stroke-width="1"/>
      <path d="M0 0L120 120M120 0L0 120" stroke="#b6ad9f" stroke-opacity=".14" stroke-width="1"/>
    </pattern>
    <pattern id="blueprint" width="220" height="180" patternUnits="userSpaceOnUse">
      <rect x="18" y="20" width="184" height="132" rx="8" stroke="#4e6486" stroke-opacity=".22" stroke-width="1.2"/>
      <path d="M18 56H202M18 96H202M62 20V152M114 20V152M162 20V152" stroke="#4e6486" stroke-opacity=".22" stroke-width="1" stroke-dasharray="4 4"/>
      <path d="M28 28H58M28 44H44M172 124H194M170 138H188" stroke="#2a3e5d" stroke-opacity=".28" stroke-width="1.2"/>
    </pattern>
  </defs>
  <rect width="1600" height="900" fill="url(#bg)"/>
  <rect width="1600" height="900" fill="url(#grain)"/>
  <rect width="1600" height="900" fill="url(#blueprint)"/>
  <rect width="1600" height="900" fill="url(#light)"/>
</svg>
